<svg width="36" height="35" viewBox="0 0 36 35" fill="none" xmlns="http://www.w3.org/2000/svg">
<path d="M11.7019 17.6794C11.7019 18.1625 11.5633 18.404 11.2862 18.404C10.0428 18.404 8.61326 18.6891 7.00556 19.2593C5.76216 19.691 4.76428 19.9088 4.02379 19.9088C3.46941 19.9088 3.02986 19.6751 2.70119 19.2079C2.40817 18.7762 1.93298 18.507 1.27565 18.404C0.998459 18.404 0.859863 18.1625 0.859863 17.6794C0.859863 17.1963 0.998459 16.9547 1.27565 16.9547C1.93298 16.8676 2.40817 16.6102 2.70119 16.1786C3.02986 15.6955 3.46941 15.4539 4.02379 15.4539C4.76824 15.4539 5.76216 15.6717 7.00556 16.1033C8.61326 16.6736 10.0388 16.9587 11.2862 16.9587C11.5633 16.9587 11.7019 17.1963 11.7019 17.6794ZM20.6671 19.2316C20.6671 19.4732 20.5601 19.7068 20.3423 19.9325C20.1246 20.1582 19.887 20.2691 19.6296 20.2691C19.5266 20.2691 19.3445 20.2097 19.0831 20.087C18.6871 19.8969 18.3466 19.8018 18.0734 19.8018C17.7803 19.8018 17.4437 19.8969 17.0636 20.087C16.822 20.2097 16.6399 20.2691 16.5171 20.2691C16.2756 20.2691 16.0459 20.1582 15.8281 19.9325C15.6103 19.7068 15.5034 19.4732 15.5034 19.2316C15.5034 19.1128 15.5628 18.9307 15.6856 18.6852C15.8598 18.2892 15.9469 17.9486 15.9469 17.6754C15.9469 17.4022 15.8598 17.0695 15.6856 16.6894C15.5628 16.432 15.5034 16.2419 15.5034 16.1192C15.5034 15.8776 15.6103 15.644 15.8281 15.4183C16.0419 15.1926 16.2716 15.0817 16.5171 15.0817C16.6359 15.0817 16.8181 15.1411 17.0636 15.2639C17.4437 15.4539 17.7803 15.549 18.0734 15.549C18.3505 15.549 18.6871 15.4539 19.0831 15.2639C19.3445 15.1451 19.5227 15.0817 19.6296 15.0817C19.8909 15.0817 20.1246 15.1965 20.3423 15.4302C20.5601 15.6638 20.6671 15.8935 20.6671 16.1192C20.6671 16.2419 20.6077 16.432 20.4849 16.6894C20.2948 17.0695 20.1998 17.3982 20.1998 17.6754C20.1998 17.9526 20.2948 18.2892 20.4849 18.6852C20.6037 18.9267 20.6671 19.1089 20.6671 19.2316ZM20.2513 3.6298C20.2513 4.37425 20.0454 5.36818 19.6296 6.61157C19.0752 8.21927 18.798 9.6369 18.798 10.8645C18.798 11.1416 18.5565 11.2802 18.0734 11.2802C17.5902 11.2802 17.3487 11.1416 17.3487 10.8645C17.3487 9.6369 17.0636 8.21927 16.4934 6.61157C16.0617 5.36818 15.844 4.37425 15.844 3.6298C15.844 3.11106 16.0934 2.67943 16.5963 2.33097C17.0121 2.05378 17.2616 1.57067 17.3487 0.877699C17.3487 0.600509 17.5902 0.461914 18.0734 0.461914C18.5565 0.461914 18.798 0.600509 18.798 0.877699C18.901 1.60235 19.1425 2.09734 19.5227 2.35473C20.0058 2.68339 20.2473 3.1071 20.2473 3.62584L20.2513 3.6298ZM20.2513 31.7448C20.2513 32.2635 20.0097 32.6872 19.5266 33.0159C19.1465 33.2733 18.9049 33.7683 18.802 34.4929C18.802 34.7701 18.5604 34.9087 18.0773 34.9087C17.5942 34.9087 17.3527 34.7701 17.3527 34.4929C17.2655 33.7999 17.0161 33.3089 16.6003 33.0159C16.0974 32.6872 15.8479 32.2635 15.8479 31.7448C15.8479 31.0003 16.0657 30.0064 16.4973 28.763C17.0675 27.1553 17.3527 25.7297 17.3527 24.4824C17.3527 24.2052 17.5942 24.0666 18.0773 24.0666C18.5604 24.0666 18.802 24.2052 18.802 24.4824C18.802 25.7258 19.0792 27.1553 19.6335 28.763C20.0493 30.0064 20.2513 31.0043 20.2513 31.7448ZM35.2552 17.6714C35.2552 18.1545 35.1166 18.3961 34.8394 18.3961C34.182 18.4991 33.7069 18.7604 33.4138 19.1722C33.0852 19.6553 32.6615 19.8969 32.1427 19.8969C31.3983 19.8969 30.4043 19.6791 29.1609 19.2475C27.5532 18.6772 26.1277 18.3921 24.8803 18.3921C24.6032 18.3921 24.4646 18.1506 24.4646 17.6675C24.4646 17.1844 24.6032 16.9428 24.8803 16.9428C26.1237 16.9428 27.5532 16.6577 29.1609 16.0875C30.4043 15.6559 31.3983 15.4381 32.1427 15.4381C32.6615 15.4381 33.0931 15.6796 33.4415 16.1627C33.7187 16.5785 34.186 16.8359 34.8433 16.9389C35.1205 16.9389 35.2591 17.1804 35.2591 17.6635L35.2552 17.6714Z" fill="#E3E3E3"/>
<path fill-rule="evenodd" clip-rule="evenodd" d="M18.0754 27.9148C23.7217 27.9148 28.2989 23.3375 28.2989 17.6913C28.2989 12.045 23.7217 7.46775 18.0754 7.46775C12.4291 7.46775 7.8519 12.045 7.8519 17.6913C7.8519 23.3375 12.4291 27.9148 18.0754 27.9148ZM18.0754 29.0225C24.3335 29.0225 29.4066 23.9493 29.4066 17.6913C29.4066 11.4332 24.3335 6.36001 18.0754 6.36001C11.8173 6.36001 6.74417 11.4332 6.74417 17.6913C6.74417 23.9493 11.8173 29.0225 18.0754 29.0225Z" fill="#E3E3E3"/>
</svg>
