<svg width="35" height="35" viewBox="0 0 35 35" fill="none" xmlns="http://www.w3.org/2000/svg">
<path fill-rule="evenodd" clip-rule="evenodd" d="M34.9611 18.1875L31.9623 18.1017C31.9663 17.9634 31.9683 17.8247 31.9683 17.6853C31.9683 17.546 31.9663 17.4072 31.9623 17.2689L34.9611 17.1831C34.9659 17.3499 34.9683 17.5173 34.9683 17.6853C34.9683 17.8533 34.9659 18.0207 34.9611 18.1875ZM34.7885 15.188L31.8197 15.6193C31.7799 15.3451 31.7323 15.0737 31.6771 14.8051L34.6157 14.2015C34.6826 14.5271 34.7403 14.856 34.7885 15.188ZM34.0983 12.2658L31.2505 13.2091C31.1636 12.9469 31.0693 12.688 30.9678 12.4328L33.7555 11.3243C33.8786 11.6338 33.993 11.9478 34.0983 12.2658ZM32.908 9.50972L30.2686 10.9358C30.1373 10.6928 29.9991 10.454 29.8543 10.2197L32.4061 8.64236C32.5815 8.92611 32.7489 9.21534 32.908 9.50972ZM31.2558 7.00242L28.9038 8.86466C28.7323 8.64807 28.5546 8.43655 28.371 8.23038L30.6114 6.23521C30.8334 6.48456 31.0483 6.7404 31.2558 7.00242ZM29.195 4.8188C28.9456 4.59675 28.6898 4.38183 28.4278 4.17438L26.5655 6.52641C26.7821 6.6979 26.9936 6.87558 27.1998 7.05918L29.195 4.8188ZM26.7878 3.02403L25.2105 5.57591C24.9762 5.43106 24.7374 5.29286 24.4944 5.16158L25.9205 2.5222C26.2148 2.68126 26.5041 2.84864 26.7878 3.02403ZM24.1059 1.67465L22.9974 4.46234C22.7421 4.36085 22.4833 4.26656 22.2211 4.17971L23.1644 1.33186C23.4824 1.43721 23.7963 1.55157 24.1059 1.67465ZM21.2287 0.814436L20.625 3.75308C20.3565 3.69791 20.085 3.6503 19.8109 3.61048L20.2421 0.641635C20.5741 0.689858 20.9031 0.747553 21.2287 0.814436ZM18.2471 0.469096L18.1612 3.46787C18.023 3.46391 17.8842 3.46191 17.7449 3.46191C17.6055 3.46191 17.4667 3.46391 17.3285 3.46787L17.2426 0.469096C17.4095 0.464319 17.5769 0.461914 17.7449 0.461914C17.9129 0.461914 18.0803 0.464319 18.2471 0.469096ZM15.2476 0.641635L15.6788 3.61048C15.4047 3.6503 15.1333 3.69791 14.8647 3.75308L14.2611 0.814437C14.5866 0.747554 14.9156 0.689859 15.2476 0.641635ZM12.3254 1.33186L13.2686 4.17971C13.0064 4.26656 12.7476 4.36085 12.4924 4.46234L11.3839 1.67465C11.6934 1.55157 12.0073 1.43721 12.3254 1.33186ZM9.56929 2.52221L10.9954 5.16158C10.7524 5.29286 10.5136 5.43106 10.2793 5.57591L8.70193 3.02403C8.98568 2.84865 9.27491 2.68126 9.56929 2.52221ZM7.06199 4.17438L8.92423 6.52641C8.70764 6.6979 8.49612 6.87558 8.28995 7.05918L6.29478 4.81881C6.54413 4.59675 6.79997 4.38184 7.06199 4.17438ZM4.87837 6.23521L7.11875 8.23039C6.93515 8.43655 6.75747 8.64807 6.58598 8.86466L4.23395 7.00242C4.4414 6.7404 4.65632 6.48456 4.87837 6.23521ZM3.0836 8.64236L5.63548 10.2197C5.49063 10.454 5.35243 10.6928 5.22115 10.9358L2.58177 9.50972C2.74083 9.21534 2.90821 8.92611 3.0836 8.64236ZM1.73422 11.3243L4.52191 12.4328C4.42042 12.688 4.32613 12.9469 4.23928 13.2091L1.39143 12.2658C1.49678 11.9478 1.61114 11.6338 1.73422 11.3243ZM0.874006 14.2015L3.81265 14.8051C3.75748 15.0737 3.70987 15.3451 3.67005 15.6193L0.701205 15.1881C0.749428 14.856 0.807123 14.5271 0.874006 14.2015ZM0.528666 17.1831C0.523889 17.3499 0.521484 17.5173 0.521484 17.6853C0.521484 17.8533 0.523889 18.0207 0.528666 18.1875L3.52744 18.1017C3.52348 17.9634 3.52148 17.8247 3.52148 17.6853C3.52148 17.546 3.52348 17.4072 3.52744 17.2689L0.528666 17.1831ZM0.701206 20.1826L3.67005 19.7514C3.70987 20.0255 3.75748 20.2969 3.81265 20.5655L0.874008 21.1691C0.807124 20.8435 0.749429 20.5146 0.701206 20.1826ZM1.39143 23.1048L4.23928 22.1615C4.32613 22.4237 4.42042 22.6826 4.52191 22.9378L1.73422 24.0463C1.61114 23.7368 1.49678 23.4228 1.39143 23.1048ZM2.58178 25.8609L5.22115 24.4348C5.35244 24.6778 5.49063 24.9166 5.63548 25.1509L3.0836 26.7282C2.90822 26.4445 2.74083 26.1553 2.58178 25.8609ZM4.23395 28.3682L6.58598 26.5059C6.75747 26.7225 6.93515 26.9341 7.11875 27.1402L4.87838 29.1354C4.65632 28.886 4.44141 28.6302 4.23395 28.3682ZM6.29479 30.5518L8.28996 28.3114C8.49612 28.495 8.70764 28.6727 8.92423 28.8442L7.06199 31.1962C6.79997 30.9888 6.54413 30.7739 6.29479 30.5518ZM8.70193 32.3466L10.2793 29.7947C10.5136 29.9395 10.7524 30.0777 10.9954 30.209L9.56929 32.8484C9.27491 32.6893 8.98568 32.522 8.70193 32.3466ZM11.3839 33.696L12.4924 30.9083C12.7476 31.0098 13.0065 31.104 13.2687 31.1909L12.3254 34.0387C12.0073 33.9334 11.6934 33.819 11.3839 33.696ZM14.2611 34.5562L14.8647 31.6175C15.1333 31.6727 15.4047 31.7203 15.6788 31.7601L15.2476 34.729C14.9156 34.6807 14.5867 34.6231 14.2611 34.5562ZM17.2426 34.9015L17.3285 31.9027C17.4667 31.9067 17.6055 31.9087 17.7449 31.9087C17.8842 31.9087 18.023 31.9067 18.1612 31.9027L18.2471 34.9015C18.0803 34.9063 17.9129 34.9087 17.7449 34.9087C17.5769 34.9087 17.4095 34.9063 17.2426 34.9015ZM20.2421 34.729L19.8109 31.7601C20.085 31.7203 20.3565 31.6727 20.625 31.6175L21.2287 34.5562C20.9031 34.6231 20.5741 34.6807 20.2421 34.729ZM23.1644 34.0387L22.2211 31.1909C22.4833 31.104 22.7421 31.0098 22.9974 30.9083L24.1059 33.696C23.7964 33.819 23.4824 33.9334 23.1644 34.0387ZM25.9205 32.8484L24.4944 30.209C24.7374 30.0777 24.9762 29.9395 25.2105 29.7947L26.7878 32.3466C26.5041 32.522 26.2148 32.6893 25.9205 32.8484ZM28.4278 31.1962L26.5655 28.8442C26.7821 28.6727 26.9936 28.495 27.1998 28.3114L29.195 30.5518C28.9456 30.7739 28.6898 30.9888 28.4278 31.1962ZM30.6114 29.1354L28.371 27.1402C28.5546 26.9341 28.7323 26.7225 28.9038 26.5059L31.2558 28.3682C31.0483 28.6302 30.8334 28.886 30.6114 29.1354ZM32.4061 26.7282L29.8543 25.1509C29.9991 24.9166 30.1373 24.6778 30.2686 24.4348L32.908 25.8609C32.7489 26.1553 32.5815 26.4445 32.4061 26.7282ZM33.7555 24.0463L30.9678 22.9378C31.0693 22.6826 31.1636 22.4237 31.2505 22.1615L34.0983 23.1048C33.993 23.4228 33.8786 23.7368 33.7555 24.0463ZM34.6157 21.1691L31.6771 20.5655C31.7323 20.2969 31.7799 20.0255 31.8197 19.7514L34.7885 20.1826C34.7403 20.5146 34.6826 20.8435 34.6157 21.1691Z" fill="#E3E3E3"/>
<path d="M19.3567 19.2677C19.5105 19.1083 19.5859 18.9434 19.5859 18.7728C19.5859 18.6862 19.5413 18.5575 19.4573 18.387C19.3232 18.1074 19.2561 17.8698 19.2561 17.6741C19.2561 17.4784 19.3232 17.2463 19.4573 16.978C19.5439 16.7963 19.5859 16.6621 19.5859 16.5754C19.5859 16.416 19.5105 16.2539 19.3567 16.089C19.2373 15.9608 19.1113 15.8834 18.9744 15.8551C18.9351 15.8469 18.8948 15.8429 18.8535 15.8429C18.7781 15.8429 18.6521 15.8877 18.4678 15.9716C18.188 16.1057 17.9504 16.1729 17.7546 16.1729C17.6162 16.1729 17.4641 16.1428 17.2981 16.0828C17.2161 16.0531 17.1306 16.016 17.0417 15.9716C16.969 15.9352 16.9043 15.9067 16.8474 15.8859C16.7686 15.8571 16.7048 15.8429 16.656 15.8429C16.4827 15.8429 16.3206 15.9211 16.1697 16.0806C16.0159 16.2399 15.9404 16.4049 15.9404 16.5754C15.9404 16.6621 15.9822 16.7963 16.0688 16.978C16.1919 17.2463 16.2534 17.4812 16.2534 17.6741C16.2534 17.8671 16.1919 18.1074 16.0688 18.387C16.02 18.4846 15.9856 18.5681 15.9646 18.6373C15.9485 18.691 15.9404 18.7362 15.9404 18.7728C15.9404 18.9434 16.0159 19.1083 16.1697 19.2677C16.3232 19.427 16.4856 19.5052 16.656 19.5052C16.7427 19.5052 16.8713 19.4634 17.0417 19.3767C17.3103 19.2426 17.5479 19.1754 17.7546 19.1754C17.9478 19.1754 18.188 19.2426 18.4678 19.3767C18.6521 19.4634 18.7808 19.5052 18.8535 19.5052C19.0352 19.5052 19.2029 19.427 19.3567 19.2677Z" fill="#E3E3E3"/>
<path fill-rule="evenodd" clip-rule="evenodd" d="M9.83911 16.5293C9.00879 16.2478 8.34058 16.1057 7.83569 16.1057C7.44409 16.1057 7.13379 16.2762 6.90186 16.6173C6.69482 16.9221 6.35938 17.1038 5.89526 17.1653C5.69971 17.1653 5.60181 17.3358 5.60181 17.6769C5.60181 18.0179 5.69971 18.1885 5.89526 18.1885C6.35938 18.2612 6.69482 18.4513 6.90186 18.756C7.13379 19.0859 7.44409 19.2509 7.83569 19.2509C8.33765 19.2509 9.00757 19.1091 9.83716 18.8279C10.3379 22.3297 13.1064 25.1 16.6074 25.6034C16.3259 26.4341 16.1836 27.1021 16.1836 27.6073C16.1836 27.9735 16.3596 28.2726 16.7148 28.5046C17.0083 28.7115 17.1843 29.0582 17.2458 29.5475C17.2458 29.7432 17.4165 29.8411 17.7576 29.8411C18.0986 29.8411 18.2693 29.7432 18.2693 29.5475C18.3418 29.0359 18.5125 28.6864 18.7808 28.5046C19.1218 28.2726 19.2925 27.9735 19.2925 27.6073C19.2925 27.1052 19.1609 26.4353 18.8904 25.6055C22.4021 25.1071 25.1797 22.3284 25.6768 18.8163C26.511 19.0996 27.1812 19.2426 27.688 19.2426C28.0542 19.2426 28.3533 19.0719 28.5854 18.7308C28.7922 18.4402 29.1277 18.2556 29.5918 18.183C29.7876 18.183 29.8853 18.0123 29.8853 17.6713L29.8882 17.6658C29.8882 17.3246 29.7903 17.1541 29.5945 17.1541C29.1306 17.0814 28.8005 16.8997 28.605 16.6062C28.3589 16.265 28.0542 16.0945 27.688 16.0945C27.1804 16.0945 26.5083 16.2379 25.6721 16.5222C25.1626 13.0238 22.3889 10.2598 18.886 9.76453C19.1577 8.93237 19.2925 8.26355 19.2925 7.75769L19.2896 7.75488C19.2896 7.38867 19.1191 7.0896 18.7781 6.85754C18.5095 6.67578 18.3391 6.32629 18.2664 5.8147C18.2664 5.61902 18.0959 5.52112 17.7546 5.52112C17.4136 5.52112 17.2432 5.61902 17.2432 5.8147C17.1816 6.30396 17.0056 6.64502 16.7119 6.8407C16.3569 7.08679 16.1807 7.39148 16.1807 7.75769C16.1807 8.26416 16.3235 8.93396 16.6064 9.76733C13.1106 10.2705 10.345 13.0342 9.83911 16.5293ZM12.9629 18.1885C13.1587 18.1885 13.2563 18.0179 13.2563 17.6769C13.2563 17.5714 13.2471 17.4825 13.2283 17.41C13.1865 17.2482 13.0981 17.1681 12.9629 17.1681C12.313 17.1681 11.5947 17.0585 10.8066 16.8392C11.1912 13.6475 13.7236 11.1168 16.9163 10.7351C17.134 11.5178 17.2432 12.2279 17.2432 12.8655C17.2432 13.0612 17.4136 13.1591 17.7546 13.1591C18.0959 13.1591 18.2664 13.0612 18.2664 12.8655C18.2664 12.2275 18.3726 11.517 18.5845 10.7338C21.7798 11.1105 24.3164 13.6395 24.7046 16.8313C23.9207 17.0483 23.2051 17.1569 22.5605 17.1569C22.365 17.1569 22.2671 17.3274 22.2671 17.6685C22.2671 18.0096 22.365 18.1802 22.5605 18.1802C23.208 18.1802 23.9238 18.2891 24.7085 18.5067C24.3337 21.7124 21.7932 24.2563 18.5891 24.6362C18.376 23.8474 18.2693 23.1279 18.2693 22.48C18.2693 22.2842 18.0986 22.1864 17.7576 22.1864C17.4165 22.1864 17.2458 22.2842 17.2458 22.48C17.2458 23.1296 17.1362 23.8478 16.9172 24.6355C13.7197 24.2537 11.1843 21.7162 10.8052 18.5178C11.5947 18.2982 12.3145 18.1885 12.9629 18.1885Z" fill="#E3E3E3"/>
</svg>
