<svg width="37" height="34" viewBox="0 0 37 34" fill="none" xmlns="http://www.w3.org/2000/svg">
<path d="M11.9897 7.01306L15.3933 7.01306L19.4082 0.161881L11.9897 0.161881L11.9897 7.01306Z" fill="white"/>
<path d="M25.7229 26.9869L22.3194 26.9869L18.3045 33.8381L25.7229 33.8381L25.7229 26.9869Z" fill="white"/>
<path d="M6.77417 17.9531L8.47594 15.0056L4.55009 8.10298L0.840874 14.5275L6.77417 17.9531Z" fill="white"/>
<path d="M30.9385 16.0469L29.2367 18.9944L33.1626 25.897L36.8718 19.4725L30.9385 16.0469Z" fill="white"/>
<path d="M13.6409 27.9402L11.9391 24.9926L3.99835 24.9412L7.70757 31.3658L13.6409 27.9402Z" fill="white"/>
<path d="M24.072 6.05994L25.7738 9.00748L33.7145 9.0589L30.0053 2.63435L24.072 6.05994Z" fill="white"/>
</svg>
