<svg width="36" height="36" viewBox="0 0 36 36" fill="none" xmlns="http://www.w3.org/2000/svg">
<path fill-rule="evenodd" clip-rule="evenodd" d="M17.5 10.0154V0H18.5V10.0154C22.52 10.2633 25.7367 13.48 25.9846 17.5H36V18.5H25.9846C25.7367 22.52 22.52 25.7367 18.5 25.9846V36H17.5V25.9846C13.48 25.7367 10.2633 22.52 10.0154 18.5H0V17.5H10.0154C10.2633 13.48 13.48 10.2633 17.5 10.0154ZM17.9963 11C14.132 11.002 11 14.1352 11 18C11 21.866 14.134 25 18 25C21.866 25 25 21.866 25 18C25 14.1352 21.868 11.002 18.0037 11C18.0025 11 18.0012 11 18 11C17.9988 11 17.9975 11 17.9963 11Z" fill="white"/>
</svg>
